<svg xmlns="http://www.w3.org/2000/svg" width="240" height="346"><defs><clipPath id="a"><rect width="240" height="346"/></clipPath></defs><g data-name="iPhone 6, 7, 8, SE – 1" clip-path="url(#a)"><rect width="240" height="346" fill="#fff"/><g data-name="Home clicked"><g data-name="Rectangle 1" transform="translate(31 163)" stroke="#000" stroke-width=".5"><rect width="45" height="45" rx="5" stroke="none"/><rect x=".25" y=".25" width="44.5" height="44.5" rx="4.75" fill="none"/></g><path data-name="Icon awesome-home" d="m53.149 180.259-8.471 7.384v7.967a.757.757 0 0 0 .735.778l5.149-.014a.758.758 0 0 0 .732-.778v-4.652a.757.757 0 0 1 .735-.778h2.938a.757.757 0 0 1 .735.778v4.649a.8.8 0 0 0 .215.552.715.715 0 0 0 .521.229l5.147.015a.757.757 0 0 0 .735-.778v-7.973l-8.468-7.379a.536.536 0 0 0-.703 0Zm13.382 5.02-3.841-3.35v-6.733a.568.568 0 0 0-.551-.583h-2.572a.568.568 0 0 0-.551.583v3.53l-4.116-3.581a2.113 2.113 0 0 0-2.8 0l-11.633 10.134a.607.607 0 0 0-.074.822l1.174 1.506a.543.543 0 0 0 .373.21.531.531 0 0 0 .4-.131l10.809-9.417a.536.536 0 0 1 .7 0l10.809 9.418a.531.531 0 0 0 .777-.078l1.172-1.507a.607.607 0 0 0 .123-.429.594.594 0 0 0-.2-.394Z" fill="#fff"/></g><g data-name="Home hover"><g data-name="Rectangle 1" transform="translate(31 100)" fill="#fff" stroke="#000" stroke-width=".5"><rect width="99" height="45" rx="5" stroke="none"/><rect x=".25" y=".25" width="98.5" height="44.5" rx="4.75" fill="none"/></g><path data-name="Icon awesome-home" d="m53.149 117.259-8.471 7.384v7.967a.757.757 0 0 0 .735.778l5.149-.014a.758.758 0 0 0 .732-.778v-4.652a.757.757 0 0 1 .735-.778h2.938a.757.757 0 0 1 .735.778v4.649a.8.8 0 0 0 .215.552.715.715 0 0 0 .521.229l5.147.015a.757.757 0 0 0 .735-.778v-7.973l-8.468-7.379a.536.536 0 0 0-.703 0Zm13.382 5.02-3.841-3.35v-6.733a.568.568 0 0 0-.551-.583h-2.572a.568.568 0 0 0-.551.583v3.53l-4.116-3.581a2.113 2.113 0 0 0-2.8 0l-11.633 10.134a.607.607 0 0 0-.074.822l1.174 1.506a.543.543 0 0 0 .373.21.531.531 0 0 0 .4-.131l10.809-9.417a.536.536 0 0 1 .7 0l10.809 9.418a.531.531 0 0 0 .777-.078l1.172-1.507a.607.607 0 0 0 .123-.429.594.594 0 0 0-.2-.394Z"/><text transform="translate(75 128)" font-size="15" font-family="Oxygen-Bold, Oxygen" font-weight="700"><tspan x="0" y="0">HOME</tspan></text></g><g data-name="Home"><g data-name="Rectangle 1" transform="translate(31 37)" fill="#fff" stroke="#000" stroke-width=".5"><rect width="45" height="45" rx="5" stroke="none"/><rect x=".25" y=".25" width="44.5" height="44.5" rx="4.75" fill="none"/></g><path data-name="Icon awesome-home" d="m53.149 54.259-8.471 7.384v7.967a.757.757 0 0 0 .735.778l5.149-.014a.758.758 0 0 0 .732-.778v-4.652a.757.757 0 0 1 .735-.778h2.938a.757.757 0 0 1 .735.778v4.649a.8.8 0 0 0 .215.552.715.715 0 0 0 .521.229l5.147.015a.757.757 0 0 0 .735-.778v-7.973l-8.468-7.379a.536.536 0 0 0-.703 0Zm13.382 5.02-3.841-3.35v-6.733a.568.568 0 0 0-.551-.583h-2.572a.568.568 0 0 0-.551.583v3.53L54.9 49.145a2.113 2.113 0 0 0-2.8 0L40.467 59.279a.607.607 0 0 0-.074.822l1.174 1.506a.543.543 0 0 0 .373.21.531.531 0 0 0 .4-.131l10.809-9.417a.536.536 0 0 1 .7 0l10.809 9.418a.531.531 0 0 0 .777-.078l1.172-1.507a.607.607 0 0 0 .123-.429.594.594 0 0 0-.2-.394Z"/></g></g></svg>